<?xml version="1.0" standalone="no"?>
<!DOCTYPE svg PUBLIC "-//W3C//DTD SVG 20010904//EN"
 "http://www.w3.org/TR/2001/REC-SVG-20010904/DTD/svg10.dtd">
<svg version="1.0" xmlns="http://www.w3.org/2000/svg"
 width="500.000000pt" height="500.000000pt" viewBox="0 0 500.000000 500.000000"
 preserveAspectRatio="xMidYMid meet">
<metadata>
Created by potrace 1.14, written by Peter Selinger 2001-2017
</metadata>
<g transform="translate(0.000000,500.000000) scale(0.100000,-0.100000)"
fill="#000000" stroke="none">
<path d="M2348 4985 c-2 -2 -32 -6 -68 -9 -36 -4 -76 -9 -90 -11 -14 -2 -45
-7 -70 -10 -300 -39 -690 -188 -970 -372 -475 -312 -828 -768 -1005 -1298 -41
-122 -87 -309 -100 -400 -16 -115 -23 -190 -19 -197 3 -5 1 -8 -4 -8 -5 0 -9
-84 -8 -195 0 -107 3 -195 7 -195 4 0 7 -10 6 -22 -2 -56 30 -246 64 -383 50
-202 163 -478 262 -640 40 -65 139 -216 150 -227 7 -7 27 -33 44 -57 41 -56
171 -199 243 -267 278 -264 628 -468 993 -579 133 -41 316 -79 432 -90 80 -8
102 -12 116 -21 8 -4 9 -3 5 4 -4 7 -2 12 3 12 6 0 11 -4 11 -9 0 -8 273 -7
360 2 90 10 237 33 320 51 310 68 590 187 850 361 96 64 106 71 214 159 262
213 513 536 664 858 68 144 151 388 176 518 3 14 7 36 10 50 3 13 8 40 11 60
3 20 8 47 10 60 10 48 19 135 17 173 0 20 3 37 8 37 8 0 6 318 -3 360 -3 14
-8 52 -12 85 -9 87 -25 181 -42 250 -8 33 -17 69 -19 80 -9 51 -58 197 -100
302 -301 753 -958 1319 -1744 1503 -102 23 -264 50 -336 54 -29 2 -56 6 -61 8
-9 6 -320 8 -325 3z m332 -59 c47 -3 94 -7 105 -10 11 -2 47 -7 80 -11 70 -8
206 -37 285 -60 30 -9 60 -17 65 -19 129 -33 402 -153 524 -231 22 -14 45 -25
50 -25 5 0 11 -3 13 -7 2 -5 23 -21 48 -37 171 -111 409 -326 542 -491 302
-374 488 -822 535 -1285 15 -149 9 -477 -12 -610 -12 -79 -24 -138 -31 -162
-5 -16 -9 -38 -19 -88 -7 -36 -50 -171 -87 -270 -77 -207 -243 -489 -395 -673
-74 -89 -220 -238 -297 -302 -26 -22 -56 -47 -66 -55 -10 -8 -43 -33 -75 -55
-31 -22 -69 -50 -83 -61 -34 -27 -220 -134 -232 -134 -6 0 -10 -3 -10 -7 0 -8
-92 -49 -99 -44 -2 1 -7 -1 -10 -6 -3 -5 -40 -23 -81 -40 -205 -85 -453 -148
-670 -170 -92 -10 -435 -10 -510 0 -30 3 -68 8 -85 10 -32 5 -107 17 -140 23
-11 2 -31 6 -45 9 -40 7 -232 62 -265 76 -16 7 -32 13 -35 14 -101 26 -437
195 -534 268 -168 125 -218 165 -291 232 -450 412 -726 976 -781 1595 -7 74
-6 341 1 400 4 30 8 71 10 90 3 30 9 69 32 204 11 65 86 314 119 395 39 97
129 283 154 321 10 14 37 57 61 95 39 63 131 191 184 255 86 104 252 262 406
384 115 93 341 222 514 296 89 38 259 97 302 106 12 2 34 9 48 14 14 5 25 7
25 5 0 -2 12 0 26 5 14 6 40 12 57 14 18 3 57 9 87 15 95 17 131 21 270 27 74
4 136 7 137 8 3 2 29 1 173 -8z"/>
<path d="M2397 4843 c-1 -1 -40 -4 -87 -8 -47 -3 -96 -8 -110 -10 -14 -2 -54
-9 -90 -15 -103 -16 -120 -20 -216 -45 -222 -59 -453 -159 -644 -280 -58 -37
-109 -70 -114 -75 -5 -5 1 -20 13 -36 l22 -27 -45 -31 c-25 -17 -44 -36 -41
-43 2 -7 -1 -10 -8 -7 -7 2 -29 -12 -50 -31 -21 -19 -43 -35 -48 -35 -6 0 -7
-5 -4 -10 4 -6 10 -8 15 -5 5 3 11 1 15 -4 3 -6 -5 -8 -19 -5 -20 3 -37 -7
-81 -51 -34 -33 -53 -60 -49 -67 4 -6 3 -8 -4 -4 -6 3 -17 0 -25 -8 -13 -13
-17 -12 -35 5 -12 10 -25 19 -30 19 -31 0 -252 -312 -340 -480 -87 -166 -200
-464 -188 -496 3 -7 15 -14 28 -16 17 -2 23 -10 24 -28 0 -14 -4 -31 -9 -37
-6 -9 -5 -19 4 -30 10 -11 10 -14 2 -9 -8 4 -13 2 -14 -6 0 -7 -3 -22 -5 -33
-10 -44 -17 -92 -18 -122 -1 -18 -4 -33 -8 -33 -8 0 -5 -21 6 -39 6 -10 5 -12
-2 -7 -11 7 -15 -20 -15 -96 0 -19 -6 -21 -51 -18 l-29 2 7 -174 c7 -202 10
-236 31 -353 23 -131 83 -344 133 -470 62 -155 184 -380 269 -493 23 -31 26
-32 48 -18 21 14 64 18 63 6 -2 -19 5 -32 27 -55 14 -14 24 -25 21 -25 -3 0
14 -21 37 -46 80 -86 135 -142 139 -140 1 1 15 -11 29 -25 l26 -27 -24 -27
-25 -26 29 -25 c113 -100 362 -274 392 -274 5 0 11 -3 13 -7 4 -10 159 -86
211 -104 20 -7 37 -17 37 -23 0 -5 3 -7 6 -3 3 3 29 -3 58 -14 62 -25 137 -51
153 -53 7 -1 16 -5 19 -9 4 -4 20 -7 36 -7 15 0 28 -5 28 -11 0 -5 4 -8 8 -5
4 3 26 0 48 -5 21 -6 48 -12 59 -14 11 -1 47 -8 80 -14 33 -6 87 -13 120 -17
33 -3 74 -7 90 -9 39 -4 318 -5 370 -1 36 2 89 8 180 21 64 8 91 14 116 24 15
5 29 8 31 6 2 -2 27 2 56 9 29 8 52 12 52 9 0 -3 7 0 15 7 9 7 18 10 22 7 3
-4 11 -3 17 2 6 5 31 15 56 22 56 16 51 14 75 24 11 4 49 19 85 33 132 51 276
127 430 227 l76 51 -19 26 -20 27 31 30 c18 16 32 27 32 25 0 -1 12 8 26 21
15 14 31 22 37 18 6 -3 7 -1 3 5 -6 11 5 16 26 13 4 0 5 6 2 14 -4 8 -2 15 3
15 5 0 27 18 48 39 22 22 44 37 49 34 5 -3 6 -2 3 4 -3 5 16 31 43 57 l49 48
23 -22 23 -21 43 48 c68 76 73 83 138 178 76 112 164 261 164 278 0 7 5 18 11
24 24 24 115 258 162 418 18 60 54 240 63 310 18 155 20 205 18 360 -2 93 -5
179 -8 191 -2 12 -7 45 -11 75 -16 135 -69 347 -125 504 -32 88 -161 348 -218
437 -73 115 -69 112 -107 88 l-32 -20 -10 23 c-11 23 -120 158 -156 192 -12
11 -25 19 -30 17 -5 -1 -6 1 -4 6 3 4 -3 18 -13 32 -15 20 -20 22 -34 11 -11
-9 -16 -10 -16 -2 0 6 5 11 10 11 6 0 5 8 -2 20 -7 11 -19 20 -27 20 -8 0 -11
3 -7 7 3 4 -3 12 -14 18 l-22 12 26 30 25 30 -41 34 c-398 330 -861 520 -1353
555 -92 6 -284 11 -288 7z m-1207 -583 c0 -5 -2 -10 -4 -10 -3 0 -8 5 -11 10
-3 6 -1 10 4 10 6 0 11 -4 11 -10z m90 -71 c0 -4 -12 -14 -26 -24 -30 -19 -50
-35 -111 -90 -25 -22 -55 -45 -67 -52 -11 -7 -18 -12 -14 -13 11 0 -90 -100
-101 -100 -6 0 -19 7 -30 16 -19 16 -18 17 7 42 15 13 26 29 24 34 -1 5 2 7 8
3 5 -3 13 1 16 9 3 9 10 13 15 10 5 -3 9 2 9 10 0 9 3 16 8 16 4 0 33 25 65
55 32 30 63 55 69 55 5 0 8 6 5 13 -3 7 3 13 14 14 10 1 31 13 46 27 l28 26
17 -22 c10 -13 18 -26 18 -29z m-90 37 c0 -3 -4 -8 -10 -11 -5 -3 -10 -1 -10
4 0 6 5 11 10 11 6 0 10 -2 10 -4z m-120 -86 c0 -5 -2 -10 -4 -10 -3 0 -8 5
-11 10 -3 6 -1 10 4 10 6 0 11 -4 11 -10z m2920 -34 c0 -3 -4 -8 -10 -11 -5
-3 -10 -1 -10 4 0 6 5 11 10 11 6 0 10 -2 10 -4z m41 -103 c116 -120 119 -123
119 -134 0 -6 5 -7 10 -4 6 3 10 1 10 -6 0 -6 19 -33 41 -61 27 -32 38 -53 32
-59 -6 -6 -26 11 -55 49 -26 32 -80 94 -122 138 -42 43 -76 82 -76 87 0 4 -5
7 -10 7 -20 0 -53 39 -46 55 8 21 11 19 97 -72z m96 62 c0 -8 -4 -12 -9 -9 -5
3 -6 10 -3 15 9 13 12 11 12 -6z m-3177 1 c0 -3 -4 -8 -10 -11 -5 -3 -10 -1
-10 4 0 6 5 11 10 11 6 0 10 -2 10 -4z m3075 -6 c3 -5 1 -10 -4 -10 -6 0 -11
5 -11 10 0 6 2 10 4 10 3 0 8 -4 11 -10z m105 -94 c0 -2 -7 -7 -16 -10 -8 -3
-12 -2 -9 4 6 10 25 14 25 6z m60 -26 c0 -5 -5 -10 -11 -10 -5 0 -7 5 -4 10 3
6 8 10 11 10 2 0 4 -4 4 -10z m-5 -40 c3 -5 1 -10 -4 -10 -6 0 -11 5 -11 10 0
6 2 10 4 10 3 0 8 -4 11 -10z m40 -40 c3 -5 1 -10 -4 -10 -6 0 -11 5 -11 10 0
6 2 10 4 10 3 0 8 -4 11 -10z m-3757 -839 c16 -10 14 -22 -7 -39 -9 -8 -10
-11 -3 -7 6 3 12 1 12 -4 0 -6 -3 -11 -7 -11 -5 0 -9 -21 -10 -47 -2 -27 -10
-54 -20 -66 -10 -11 -12 -17 -5 -13 9 5 11 -2 6 -31 -3 -21 -10 -46 -15 -55
-7 -12 -6 -18 2 -18 7 0 8 -5 2 -12 -5 -7 -8 -34 -8 -60 l0 -48 -35 1 c-19 0
-29 3 -21 6 11 4 11 7 0 13 -9 6 -10 13 -3 22 6 7 9 28 9 46 -1 23 3 32 14 32
12 0 13 2 3 9 -12 7 -10 61 4 83 3 4 0 8 -7 8 -8 0 -8 4 1 15 7 8 9 15 5 15
-4 0 -2 6 4 13 6 8 8 17 4 20 -3 4 -2 12 4 19 5 7 8 23 7 36 0 12 2 22 6 22 4
0 8 6 7 13 -1 46 17 60 51 38z m-82 -66 c-1 -8 -5 -17 -8 -21 -5 -4 -4 16 1
34 3 9 9 -1 7 -13z m-86 -69 c0 -2 -8 -10 -17 -17 -16 -13 -17 -12 -4 4 13 16
21 21 21 13z m44 -28 c-3 -4 -11 -5 -19 -1 -21 7 -19 12 4 10 11 0 18 -5 15
-9z m6 -38 c0 -5 -2 -10 -4 -10 -3 0 -8 5 -11 10 -3 6 -1 10 4 10 6 0 11 -4
11 -10z m-69 -67 c13 -16 12 -17 -3 -4 -10 7 -18 15 -18 17 0 8 8 3 21 -13z
m66 -2 c0 -11 -5 -18 -9 -15 -4 3 -5 11 -1 19 7 21 12 19 10 -4z m499 -1580
c-3 -5 2 -15 12 -22 16 -13 16 -12 2 6 -15 20 -15 20 8 1 12 -11 20 -26 17
-33 -2 -8 -1 -12 3 -9 7 4 42 -27 42 -37 0 -2 -9 -3 -21 -4 -15 -1 -19 3 -15
13 3 8 2 13 -3 10 -8 -5 -61 47 -61 60 0 3 -7 12 -16 21 -8 9 -13 22 -10 29 3
9 0 11 -12 7 -15 -6 -15 -5 -4 10 13 15 16 14 39 -13 13 -16 22 -34 19 -39z
m104 -116 c0 -7 7 -16 16 -19 8 -3 12 -11 8 -17 -4 -7 -3 -9 3 -6 14 9 37 -19
27 -34 -5 -8 -3 -9 5 -4 12 7 71 -40 71 -57 0 -20 -28 -4 -68 37 -24 25 -48
45 -53 45 -5 0 -9 6 -9 13 0 7 -9 19 -20 27 -11 8 -20 17 -20 20 0 3 9 6 20 7
11 1 20 -4 20 -12z m-140 -19 c0 -2 -8 -10 -17 -17 -16 -13 -17 -12 -4 4 13
16 21 21 21 13z m116 -78 c3 -4 -1 -5 -10 -4 -8 1 -18 5 -22 8 -3 4 1 5 10 4
8 -1 18 -5 22 -8z"/>
<path d="M415 2880 c3 -5 8 -10 11 -10 2 0 4 5 4 10 0 6 -5 10 -11 10 -5 0 -7
-4 -4 -10z"/>
</g>
</svg>
